# xmcd CD database file
#
# Track frame offsets:
#	150
#	15978
#	27758
#	46211
#	63014
#	77344
#	92613
#	111232
#	124865
#	138125
#	149803
#	161865
#	171934
#	187708
#	208243
#
# Disc length: 2958 seconds
#
# Revision: 0
# Processed by: cddbd v1.4PL0 Copyright (c) Steve Scherf et al.
# Submitted via: CDex 1.40Beta8
#
DISCID=c10b8c0f
DTITLE=Fat city blues - Laying my monkey down
DYEAR=1999
DGENRE=Blues
TTITLE0=I feel like going home
TTITLE1=Now the kid is gone
TTITLE2=New Louise blues
TTITLE3=Take a little walk
TTITLE4=Sex
TTITLE5=Skin deep
TTITLE6=Laying my monkey down
TTITLE7=Deal me in
TTITLE8=Crying rain
TTITLE9=Tough all over town
TTITLE10=I'm walking, but...
TTITLE11=Baby, maybe you're right
TTITLE12=Down where the salt wind blows
TTITLE13=My love/hate relation with the blues
TTITLE14=Too little, too late, too bad
EXTD=YEAR: 1999 ID3G: 0
EXTT0=
EXTT1=
EXTT2=
EXTT3=
EXTT4=
EXTT5=
EXTT6=
EXTT7=
EXTT8=
EXTT9=
EXTT10=
EXTT11=
EXTT12=
EXTT13=
EXTT14=
PLAYORDER=
